<?xml version="1.0" standalone="no"?>
<!DOCTYPE svg PUBLIC "-//W3C//DTD SVG 20010904//EN"
 "http://www.w3.org/TR/2001/REC-SVG-20010904/DTD/svg10.dtd">
<svg version="1.0" xmlns="http://www.w3.org/2000/svg"
 width="1280.000000pt" height="640.000000pt" viewBox="0 0 1280.000000 640.000000"
 preserveAspectRatio="xMidYMid meet">
<metadata>
Created by potrace 1.15, written by Peter Selinger 2001-2017
</metadata>
<g transform="translate(0.000000,640.000000) scale(0.100000,-0.100000)"
fill="#ffffff" stroke="none">
<path d="M6450 6168 c0 -37 36 -87 67 -94 54 -12 63 -15 63 -25 0 -6 -9 -8
-19 -4 -14 4 -23 0 -31 -15 -14 -25 -47 -26 -74 -1 -12 11 -37 24 -56 29 -31
9 -32 10 -9 11 15 1 37 9 49 19 22 18 22 19 5 45 -11 17 -33 31 -59 38 -98 27
-1822 -14 -2351 -56 -389 -31 -672 -88 -899 -181 -248 -102 -381 -207 -551
-435 -96 -129 -139 -201 -165 -279 -29 -85 -190 -414 -229 -467 -23 -30 -56
-54 -120 -87 -90 -46 -191 -119 -311 -222 -86 -74 -113 -86 -255 -119 -193
-44 -384 -124 -437 -182 -10 -10 -27 -41 -39 -68 -21 -46 -23 -72 -29 -320 -4
-148 -10 -278 -15 -288 -4 -10 -25 -27 -46 -38 -21 -10 -46 -31 -55 -45 -46
-69 -80 -302 -52 -354 19 -37 76 -60 152 -63 l66 -2 -6 -28 c-6 -27 -5 -27 38
-26 52 2 75 -9 150 -73 31 -27 62 -48 70 -47 7 2 31 -6 53 -18 22 -11 60 -24
85 -28 68 -10 77 -14 83 -35 7 -27 47 -27 47 0 0 10 -5 30 -12 44 -9 22 -7 31
17 65 20 31 29 59 36 117 10 90 25 140 44 147 7 3 17 -2 21 -11 3 -9 10 -138
14 -287 9 -305 20 -378 76 -495 134 -283 289 -160 311 247 6 122 1 144 -25
103 -7 -11 -17 -20 -23 -20 -6 0 -8 9 -4 20 6 17 2 20 -29 20 -37 0 -48 13
-20 24 9 3 27 6 40 6 14 0 27 7 31 16 9 24 -14 64 -36 64 -25 0 -37 22 -45 85
-5 37 -3 55 8 70 13 18 16 18 30 5 8 -8 26 -59 41 -114 15 -54 36 -119 47
-145 44 -101 43 -263 -2 -428 -45 -164 -140 -303 -209 -303 -45 0 -83 22 -121
70 -18 22 -45 47 -61 55 -26 14 -33 14 -66 -1 -28 -12 -73 -18 -168 -20 -156
-3 -266 -12 -285 -24 -11 -7 -11 -11 -1 -23 15 -19 13 -20 -87 -47 -90 -24
-102 -41 -34 -51 23 -3 44 -8 47 -11 3 -2 -121 -8 -276 -12 -542 -13 -344 -43
438 -66 199 -6 394 -16 435 -21 40 -6 91 -11 114 -12 34 -1 40 -5 36 -19 -6
-25 25 -34 47 -14 11 10 36 16 68 16 69 0 85 -7 73 -31 -8 -15 -6 -21 14 -34
14 -9 34 -13 47 -10 13 3 44 -1 68 -10 25 -8 101 -24 170 -35 142 -22 197 -36
226 -56 28 -20 37 -17 30 7 -6 19 -4 21 16 16 13 -4 28 -7 33 -7 6 0 -3 -14
-19 -30 l-29 -30 25 0 c13 0 60 11 103 25 44 14 82 23 84 20 3 -2 -1 -7 -9
-10 -8 -2 -63 -22 -124 -44 -60 -22 -164 -58 -230 -81 -66 -23 -237 -84 -380
-137 -665 -244 -1023 -370 -1680 -593 -331 -112 -375 -128 -375 -142 0 -16 54
-2 288 72 342 109 680 226 1617 560 438 156 597 210 845 284 200 60 216 64
182 40 -12 -8 -22 -19 -22 -25 0 -5 44 -9 100 -9 66 0 113 -5 136 -15 19 -8
103 -24 185 -35 161 -22 196 -32 205 -54 8 -20 46 -34 159 -55 69 -13 123 -31
170 -55 43 -22 102 -42 150 -52 44 -8 125 -30 180 -50 166 -59 171 -59 227
-39 90 32 292 5 558 -75 138 -42 232 -59 560 -105 245 -35 557 -91 639 -115
36 -10 143 -28 236 -40 94 -11 195 -28 225 -37 30 -9 71 -15 90 -14 19 1 139
-5 265 -13 370 -24 984 -30 1445 -15 521 18 643 17 694 -4 45 -20 127 -22 144
-5 7 7 12 20 12 29 0 10 4 20 9 23 19 12 155 25 361 36 370 18 456 29 934 116
379 69 413 72 491 45 58 -21 60 -21 85 -3 14 11 26 29 28 41 3 17 10 21 41 21
22 0 44 6 51 15 57 68 -55 -158 -147 -299 -36 -55 -96 -163 -133 -240 -38 -78
-85 -160 -104 -182 -19 -23 -32 -44 -29 -48 14 -13 72 -5 96 14 14 11 59 84
99 163 41 78 121 216 178 307 57 91 121 197 142 235 l37 70 123 1 c136 1 342
25 379 44 13 7 45 31 71 52 53 44 124 68 203 68 51 0 85 12 67 24 -5 3 -79 22
-163 41 -192 44 -267 68 -345 111 -64 35 -84 33 -84 -10 0 -15 -3 -17 -12 -8
-9 9 -9 21 0 50 18 59 30 65 91 46 74 -22 82 -13 22 25 -28 18 -51 38 -51 45
0 27 253 426 402 633 34 49 83 126 107 172 55 102 109 164 159 184 26 10 93
18 198 23 161 7 194 13 194 39 0 28 -30 43 -104 50 -70 6 -74 8 -64 25 15 24
-5 50 -39 50 -35 0 -41 -29 -12 -53 l24 -20 -75 7 c-133 13 -162 36 -179 145
-6 35 -12 66 -15 68 -13 14 -24 -14 -30 -79 -14 -136 -51 -173 -174 -171 -41
0 -79 6 -87 13 -13 11 -15 8 -15 -14 0 -24 -3 -26 -22 -20 -35 10 -49 25 -43
45 5 15 1 19 -20 19 -24 0 -94 54 -84 65 2 2 38 8 79 14 80 11 100 25 100 71
0 39 -18 50 -85 50 -63 0 -165 24 -165 39 0 12 26 21 56 21 27 0 43 25 26 42
-6 6 -37 16 -69 22 l-58 12 2 67 c0 37 6 74 13 82 7 8 13 49 14 92 1 65 6 87
30 131 16 28 35 52 42 52 27 0 42 29 37 68 -4 28 0 47 13 68 28 43 26 208 -4
285 -42 106 -131 179 -218 179 -58 0 -138 -43 -182 -98 -62 -78 -130 -144
-141 -137 -29 17 -9 68 81 209 21 32 35 62 32 67 -3 5 55 9 128 10 l133 1 -56
18 c-225 73 -647 123 -1144 136 -238 6 -278 1 -283 -35 -3 -15 -8 -21 -19 -17
-8 3 -17 6 -20 6 -4 0 2 9 11 19 22 25 13 41 -22 41 -36 0 -65 21 -93 67 -34
57 -108 130 -169 168 -116 70 -330 148 -438 161 -46 5 -66 12 -81 30 -25 29
-55 31 -78 4 -25 -28 -36 -25 -31 10 5 35 -10 39 -37 10 -12 -14 -16 -28 -12
-50 8 -37 -10 -40 -23 -5 -15 39 -59 52 -269 80 -280 37 -423 46 -634 38 -181
-6 -188 -5 -185 13 2 12 -6 23 -23 31 -40 19 -183 26 -289 14 -52 -6 -192 -14
-310 -17 -148 -3 -235 -10 -279 -21 -63 -16 -64 -16 -80 6 -27 35 -128 44
-431 38 -246 -5 -400 -19 -400 -37 0 -13 116 -30 270 -41 269 -19 290 -21 290
-29 0 -5 -33 -11 -72 -14 -104 -8 -802 -26 -807 -21 -2 3 5 7 15 11 10 3 26 8
34 12 8 3 -18 9 -59 14 -74 8 -101 19 -101 44 0 12 -37 44 -52 44 -4 0 -27
-17 -51 -38 l-44 -38 -143 -12 c-261 -23 -658 -86 -681 -109 -7 -7 164 -8 493
-5 477 4 1166 -7 1673 -28 667 -28 1060 -42 1326 -48 232 -6 300 -10 313 -21
40 -34 -59 -55 -191 -41 -348 37 -762 61 -1588 92 -477 17 -1664 17 -1737 -1
-49 -12 -61 -12 -95 1 -39 16 -76 14 -220 -10 -45 -8 -51 -7 -41 5 22 27 -5
34 -86 22 -43 -5 -80 -8 -83 -5 -11 11 43 27 178 51 272 49 463 95 482 115 17
18 -65 9 -428 -50 -448 -73 -502 -79 -790 -91 -247 -11 -728 -6 -795 7 -19 4
-29 11 -26 19 8 23 -6 25 -34 5 -29 -20 -94 -27 -104 -11 -3 5 5 12 19 15 39
10 30 23 -22 33 -39 7 -11 10 152 16 300 11 590 27 684 37 62 7 90 15 106 30
12 11 26 20 31 20 6 0 33 16 60 36 63 45 100 61 203 85 86 20 115 34 105 50
-3 5 -27 9 -53 9 -33 0 -56 6 -74 20 -33 26 -45 25 -69 -5 -24 -31 -62 -35
-53 -5 5 15 0 22 -21 30 l-27 11 7 92 c3 51 17 155 31 232 30 168 33 229 12
253 -8 9 -17 26 -18 37 -2 11 -21 28 -44 40 -37 18 -67 20 -361 25 -296 5
-322 6 -339 24 -16 16 -29 18 -82 13 -35 -4 -63 -2 -63 2 0 15 206 33 740 66
555 33 1232 93 1262 111 15 9 -1 22 -37 28 -54 11 -50 23 12 37 32 7 62 16 67
20 30 26 -654 23 -824 -5 -145 -23 -230 -61 -230 -103 0 -26 -15 -12 -32 28
-17 41 -18 42 -60 36 -230 -30 -351 -52 -405 -73 -84 -34 -166 -45 -297 -42
-121 3 -145 17 -80 44 102 43 636 113 1125 148 609 44 1418 70 1542 50 30 -5
35 -9 26 -20 -9 -11 -6 -16 12 -23 30 -11 19 -16 -81 -32 -79 -12 -150 -36
-150 -49 0 -18 129 -23 425 -15 365 10 473 9 695 -5 258 -17 629 -49 698 -61
68 -12 94 -29 35 -23 -265 27 -1042 34 -1583 15 -466 -17 -1313 -60 -1409 -72
-170 -21 -246 -46 -277 -95 -16 -23 -15 -30 6 -117 29 -116 168 -536 212 -641
19 -45 44 -87 58 -97 36 -27 124 -41 205 -34 180 17 481 68 500 86 49 48 -225
62 -462 23 -51 -9 -98 -12 -104 -9 -27 17 23 149 155 413 l84 167 -21 40 c-33
65 -77 176 -77 196 0 28 32 32 210 30 219 -2 242 -7 256 -50 6 -18 46 -78 90
-132 134 -169 248 -364 268 -461 5 -22 12 -28 31 -28 22 0 25 -5 25 -33 0 -46
15 -57 83 -57 51 0 58 2 53 18 -25 80 -86 353 -86 383 0 49 12 60 134 121 55
28 118 64 138 80 30 24 52 30 125 39 98 12 139 24 147 44 8 23 -12 77 -41 107
l-27 28 42 0 c40 0 42 -2 36 -24 -7 -30 28 -101 58 -117 14 -7 61 -10 138 -7
l116 4 47 -257 c25 -142 53 -274 61 -294 15 -35 18 -37 49 -31 25 5 36 2 49
-13 19 -23 92 -36 143 -27 38 7 39 9 35 78 -1 38 2 48 18 57 31 17 93 13 163
-9 81 -25 127 -53 139 -84 15 -41 74 -60 110 -36 12 9 5 20 -40 61 -73 67
-153 103 -278 127 -69 13 -110 26 -122 38 -10 11 -30 65 -45 123 -14 57 -35
121 -45 141 -44 86 -186 208 -245 211 -19 0 -18 1 3 11 12 6 22 20 22 31 0 19
4 20 98 13 53 -4 192 -11 308 -15 117 -5 217 -12 223 -15 6 -4 11 -13 11 -20
0 -21 43 -54 85 -65 66 -17 73 -27 100 -148 29 -130 55 -205 72 -210 22 -8 26
46 9 115 -21 86 -21 98 -1 82 8 -7 15 -19 15 -27 0 -8 15 -29 32 -46 18 -18
42 -52 54 -77 11 -25 46 -87 78 -138 31 -51 68 -115 81 -143 14 -27 32 -52 40
-56 38 -14 6 -23 -85 -23 -60 0 -100 -4 -100 -10 0 -5 8 -10 18 -10 37 0 92
-21 92 -36 0 -28 -55 -36 -267 -43 -324 -9 -288 -23 107 -41 277 -13 417 -13
404 -1 -5 6 -51 13 -102 17 -73 5 -90 9 -81 20 13 16 95 44 130 44 40 0 80 21
77 39 -2 9 -13 16 -26 15 -19 0 -22 5 -22 36 0 27 -10 50 -35 83 -32 42 -60
96 -53 103 2 1 57 -69 122 -157 104 -139 136 -175 136 -154 0 14 -46 91 -245
410 -117 187 -236 382 -265 433 -59 104 -75 119 -210 190 -244 130 -452 173
-996 207 -133 8 -254 19 -268 25 -36 13 -36 13 -36 -12z m1519 -548 c0 -10 -6
-8 -19 9 -11 13 -20 31 -20 40 0 12 5 10 20 -9 11 -14 20 -32 19 -40z m81
-120 c22 -43 27 -104 8 -98 -13 5 -31 53 -42 111 -9 48 6 42 34 -13z m-3198 1
c13 -5 32 -25 42 -45 20 -38 45 -50 92 -44 41 5 40 24 -3 47 l-38 20 58 1 c31
0 57 -3 57 -6 0 -15 -141 -318 -177 -379 -52 -88 -77 -113 -98 -95 -8 7 -15
16 -15 21 0 5 -36 114 -80 243 -44 128 -80 236 -80 240 0 9 216 7 242 -3z
m-2232 -110 c0 -5 -9 -19 -20 -32 -15 -19 -19 -21 -20 -7 0 9 7 24 16 32 18
18 24 20 24 7z m5540 -55 c0 -12 -5 -7 -19 24 -11 24 -11 24 3 6 9 -11 16 -24
16 -30z m-4808 -1 c-12 -22 -27 -2 -18 22 5 12 10 13 17 6 7 -7 8 -17 1 -28z
m822 -185 c-11 -69 -20 -103 -22 -85 -5 37 31 259 36 225 2 -13 -4 -76 -14
-140z m-1670 -189 c-28 -53 -41 -60 -30 -18 6 27 46 81 53 73 3 -2 -7 -27 -23
-55z m-210 -239 c9 -43 4 -72 -14 -72 -19 0 -33 47 -26 85 9 47 28 41 40 -13z
m3580 -43 c-8 -13 -24 -1 -24 18 0 13 3 13 15 3 8 -7 12 -16 9 -21z m3120 -75
c3 -9 6 -17 6 -20 0 -9 -121 -64 -142 -64 -31 0 -128 41 -122 52 3 4 50 8 105
8 97 0 146 11 134 31 -4 5 -2 9 3 9 6 0 13 -7 16 -16z m-6629 -34 l39 -20 -72
0 c-40 0 -72 2 -72 5 0 3 15 12 33 20 17 8 32 14 32 15 1 0 18 -9 40 -20z
m980 -40 c22 -7 1 -9 -80 -5 -60 3 -114 11 -120 17 -12 13 154 3 200 -12z
m5855 -10 c0 -5 -9 -10 -20 -10 -10 0 -28 -9 -39 -21 -25 -27 -130 -38 -176
-18 l-30 12 45 8 c25 5 65 15 90 23 52 17 130 21 130 6z m397 -13 c4 -7 0 -8
-11 -4 -10 4 -22 7 -27 7 -5 0 -9 4 -9 9 0 12 38 2 47 -12z m-110 -88 c94 -57
14 -103 -197 -116 -87 -5 -107 -3 -118 9 -10 12 -9 18 3 28 16 14 128 29 217
30 31 0 59 4 62 9 4 5 -7 21 -24 34 -16 14 -30 28 -30 32 0 9 53 -7 87 -26z
m-674 14 c-13 -2 -33 -2 -45 0 -13 2 -3 4 22 4 25 0 35 -2 23 -4z m-3807 -104
c40 -37 29 -90 -24 -118 -30 -16 -139 -16 -158 0 -8 6 -14 28 -13 48 l1 36 9
-32 c12 -42 40 -56 101 -51 88 9 114 61 47 95 -30 16 -104 17 -132 1 -21 -10
-21 -10 -7 7 40 48 132 56 176 14z m354 -19 c5 -8 10 -23 10 -33 0 -15 -5 -13
-24 10 -22 25 -30 28 -84 27 -57 -1 -112 -22 -112 -42 0 -19 28 -44 65 -57
l40 -14 -42 -1 c-30 0 -49 6 -63 20 -28 28 -25 46 10 82 30 29 33 30 111 26
57 -2 83 -7 89 -18z m334 4 c62 -30 73 -84 20 -105 -37 -14 -186 -14 -213 0
-30 17 -26 48 13 87 31 31 40 34 90 34 31 0 71 -7 90 -16z m-3084 -72 c31 -25
20 -38 -41 -51 -77 -17 -92 -14 -111 19 -9 17 -24 30 -33 30 -8 0 -15 5 -15
10 0 6 36 10 89 10 71 0 93 -4 111 -18z m7795 -163 c44 -12 85 -26 90 -32 19
-19 -120 1 -193 29 -130 48 -75 49 103 3z m-5545 11 c24 -7 24 -8 5 -16 -26
-11 -192 -11 -230 0 l-30 9 25 7 c32 10 198 10 230 0z m2635 -36 c182 -18 353
-51 500 -98 119 -38 156 -58 140 -75 -15 -15 -268 -71 -350 -78 -59 -5 -79 -2
-123 17 -28 12 -52 26 -52 30 0 5 52 21 116 36 64 16 130 37 147 48 l31 18
-21 18 c-32 25 -319 71 -548 86 -55 4 -106 10 -113 13 -16 9 88 3 273 -15z
m3536 -11 c6 -16 29 -47 52 -70 44 -46 43 -52 -5 -27 -18 10 -42 14 -59 10
-28 -5 -29 -5 -29 38 0 76 21 101 41 49z m-6613 7 c-69 -12 -314 -24 -306 -15
10 10 150 22 263 22 76 1 83 -1 43 -7z m5307 -54 c28 -12 57 -31 65 -41 14
-17 11 -17 -72 -11 -111 10 -150 -2 -173 -50 -20 -42 -16 -69 10 -69 12 0 21
9 26 25 l6 25 8 -28 c11 -41 -6 -70 -60 -101 -26 -15 -48 -26 -50 -24 -1 1 -8
53 -14 113 l-11 110 28 23 c32 26 103 50 152 51 19 1 58 -10 85 -23z m-4540 4
c17 -4 -85 -7 -225 -7 -154 0 -223 3 -175 7 114 9 365 9 400 0z m6550 -44 c80
-19 108 -51 125 -140 15 -80 8 -161 -21 -225 -33 -76 -107 -141 -159 -141 -61
0 -181 102 -200 169 -11 41 -12 124 0 161 l7 25 6 -25 c4 -14 6 -34 4 -44 -2
-24 48 -42 87 -32 34 8 32 17 -7 41 -41 26 -44 52 -13 114 31 59 31 68 9 93
-15 17 -14 18 43 18 32 0 86 -7 119 -14z m-9007 -43 c-2 -10 -7 -21 -13 -25
-13 -10 -75 -10 -75 0 0 6 61 34 88 41 2 1 2 -7 0 -16z m3502 -3 c805 -22 840
-24 890 -47 54 -25 134 -82 126 -90 -3 -4 -18 4 -32 18 -23 22 -34 24 -112 24
-72 0 -95 -4 -132 -24 -74 -39 -125 -86 -158 -148 -34 -65 -57 -89 -87 -95
-17 -3 -20 2 -19 34 2 51 44 132 103 199 48 54 49 57 28 63 -52 15 -406 25
-1072 30 -976 8 -1382 16 -1362 27 49 28 971 32 1827 9z m-1932 -12 c-6 -18
-22 -20 -43 -3 -19 14 -18 14 13 15 22 0 32 -4 30 -12z m5370 -74 c-5 -28 -28
-29 -28 -1 0 13 3 27 7 31 10 10 25 -10 21 -30z m-1423 6 c-20 -23 -81 -42
-197 -64 -107 -21 -256 -31 -243 -18 11 12 384 99 429 101 29 1 29 1 11 -19z
m2910 11 c16 -7 14 -9 -14 -14 -49 -10 -111 -8 -111 2 0 8 31 15 90 19 8 0 24
-3 35 -7z m-4775 -36 c0 -9 -59 -35 -80 -35 -25 0 -17 18 14 30 23 10 66 13
66 5z m1248 -23 c3 -9 -3 -10 -23 -2 -36 14 -55 13 -55 -4 0 -21 -22 -35 -70
-41 l-45 -7 25 21 c43 35 84 51 124 49 22 -2 41 -9 44 -16z m-482 -23 c52 -16
78 -31 115 -68 l47 -46 3 -85 c2 -47 2 -123 1 -170 l-2 -85 -67 -45 c-67 -45
-93 -73 -80 -86 4 -4 19 -2 34 5 26 11 27 10 8 -4 -26 -20 -76 -13 -171 26
-112 47 -180 105 -159 139 3 5 -4 23 -16 39 -14 19 -20 37 -16 52 4 15 -2 30
-23 50 -16 16 -24 29 -19 29 4 0 16 15 25 32 16 32 17 32 25 10 10 -25 44 -42
72 -34 17 4 17 6 -3 27 -18 19 -19 23 -6 28 9 4 16 18 16 34 0 19 16 47 45 83
25 30 45 63 45 72 0 24 40 23 126 -3z m584 -19 c20 -13 7 -22 -34 -23 -39 -1
-52 6 -41 22 8 13 55 14 75 1z m-783 -17 c-9 -9 -20 -13 -24 -9 -4 4 -1 11 7
16 25 16 35 11 17 -7z m2650 -19 c13 -13 28 -15 67 -10 36 5 47 3 36 -4 -20
-13 -142 -13 -177 1 l-28 12 25 7 c40 13 60 11 77 -6z m1815 -91 c-4 -56 -14
-66 -32 -33 -11 20 -7 53 13 104 l11 30 6 -25 c3 -13 4 -48 2 -76z m-3037 48
c-6 -5 -55 -15 -110 -21 -54 -6 -126 -17 -158 -26 -40 -10 -77 -13 -120 -8
-78 9 -58 17 98 38 197 26 306 33 290 17z m-748 -22 c30 -15 65 -22 113 -23
87 -1 75 -17 -19 -24 -66 -4 -124 4 -188 29 -27 10 -27 11 -9 25 27 19 52 18
103 -7z m-867 -209 c19 -19 27 -50 13 -50 -11 0 -73 51 -73 61 0 16 39 10 60
-11z m3901 1 c225 -24 314 -57 445 -170 79 -67 135 -131 116 -131 -5 0 -38 23
-73 51 -96 78 -246 138 -318 128 -42 -7 -35 -26 13 -33 24 -4 50 -14 58 -23
12 -15 9 -15 -27 -9 -22 5 -72 11 -110 15 -54 5 -76 12 -93 29 -20 20 -32 22
-149 23 -338 4 -721 -17 -1478 -81 -298 -26 -335 -31 -335 -53 0 -9 -27 -11
-95 -9 -65 2 -126 -3 -197 -17 -57 -11 -137 -25 -178 -31 -108 -16 -158 -35
-236 -86 -38 -25 -94 -58 -124 -74 -69 -35 -89 -57 -135 -149 -20 -41 -43 -81
-51 -88 -18 -18 -18 -45 0 -88 18 -41 44 -48 191 -49 158 0 265 41 265 104 0
16 5 30 12 32 7 3 13 23 13 49 0 36 4 46 23 54 12 5 22 13 22 16 0 10 -41 19
-92 19 -52 0 -64 14 -22 24 47 12 198 -16 337 -61 42 -14 80 -23 83 -20 3 3
-12 46 -35 95 -23 49 -41 94 -41 101 0 38 80 9 104 -38 32 -60 96 -259 96
-295 0 -15 -23 -2 -94 53 -43 33 -93 65 -112 71 -32 11 -42 9 -100 -20 -59
-29 -114 -81 -114 -108 0 -17 22 -15 49 4 22 16 23 16 16 -5 -4 -15 -1 -29 11
-42 22 -24 18 -24 -56 2 -49 17 -64 18 -76 8 -8 -6 -12 -20 -9 -30 5 -15 -3
-18 -62 -24 -65 -6 -108 -18 -233 -63 -65 -24 -274 -41 -523 -43 -252 -2 -400
-12 -405 -26 -10 -32 49 -36 528 -34 381 2 473 0 463 -10 -14 -14 -17 -66 -7
-93 8 -20 43 -21 50 -1 10 25 32 17 73 -24 27 -27 42 -52 46 -78 4 -21 9 -46
12 -55 3 -11 -1 -18 -10 -18 -8 0 -27 -6 -42 -14 -35 -18 -93 -24 -350 -36
-180 -8 -212 -12 -222 -26 -12 -16 -20 -15 -106 20 -111 45 -160 50 -182 19
-12 -17 -29 -22 -92 -28 -99 -8 -143 -26 -143 -59 0 -14 8 -32 17 -42 16 -15
18 -15 40 11 13 14 38 31 56 36 32 9 214 13 206 4 -14 -13 -243 -75 -278 -75
-23 0 -49 -5 -59 -11 -14 -9 -29 -7 -65 5 -26 9 -58 16 -71 16 -27 0 -136 36
-149 49 -11 11 34 17 171 26 51 3 104 10 118 15 29 11 28 33 -2 39 -30 5 -53
31 -66 73 -16 56 -29 47 -26 -19 l3 -58 -45 -3 c-42 -2 -44 -2 -20 10 26 14
37 58 26 102 -13 52 -171 82 -283 56 -43 -11 -59 -11 -74 -2 -30 19 -59 14
-99 -18 -101 -80 -135 -59 -204 131 -17 47 -49 89 -67 89 -7 0 -9 -27 -4 -84
8 -90 0 -149 -18 -144 -7 2 -22 24 -35 48 -42 83 -21 246 28 220 31 -17 40
-12 40 23 0 62 -12 60 321 56 713 -9 1144 11 1204 55 16 11 67 220 57 231 -3
2 -23 -18 -45 -46 -21 -27 -41 -48 -44 -45 -3 2 11 41 31 86 100 231 226 331
521 410 267 72 1010 156 1680 190 204 10 702 5 836 -9z m-9667 -158 c-1 -39
-6 -79 -12 -89 -8 -15 -11 -7 -17 39 -9 67 1 130 18 124 8 -3 12 -28 11 -74z
m5790 15 c8 -13 7 -21 -2 -30 -14 -14 -26 -4 -37 30 -6 19 -4 23 10 20 10 -1
23 -11 29 -20z m3904 -145 c28 -40 71 -127 98 -200 l24 -63 -35 -39 c-50 -55
-47 -87 7 -82 22 3 32 -19 52 -109 10 -41 26 -104 37 -139 24 -78 27 -170 4
-151 -17 14 -35 5 -35 -16 0 -8 -4 -12 -10 -9 -5 3 -10 17 -10 30 0 42 -22
171 -31 186 -15 23 -29 -9 -29 -66 l-1 -50 -26 60 c-14 33 -32 69 -39 80 -21
29 -17 34 24 28 28 -4 43 0 55 12 23 22 21 46 -3 52 -24 6 -36 44 -51 148 -6
44 -24 118 -40 165 -52 148 -54 157 -40 174 19 22 27 20 49 -11z m-411 -75
c74 -123 84 -297 13 -233 -38 34 -120 274 -106 310 5 15 9 14 33 -3 16 -11 42
-44 60 -74z m202 47 c63 -69 103 -177 87 -239 -3 -13 -18 -39 -32 -56 -30 -35
-43 -28 -44 25 0 17 -14 68 -31 115 -17 47 -38 104 -46 127 -30 83 3 96 66 28z
m-459 5 c39 -42 80 -152 87 -232 6 -65 5 -68 -20 -79 -32 -14 -57 -6 -57 19 0
11 -16 71 -35 135 -42 139 -45 187 -12 187 5 0 22 -13 37 -30z m-7175 10 c7
-12 -12 -40 -26 -40 -10 0 -12 34 -2 43 9 10 21 9 28 -3z m6892 -3 c62 -35
133 -199 133 -307 0 -25 -4 -30 -24 -30 -13 0 -31 -2 -39 -6 -11 -4 -16 6 -19
38 -3 24 -26 96 -52 160 -60 152 -60 179 1 145z m-274 -41 c48 -57 107 -222
107 -298 0 -27 -3 -29 -32 -26 -29 3 -33 8 -43 48 -7 25 -33 95 -59 157 -44
108 -53 143 -40 156 9 9 46 -11 67 -37z m-323 14 c65 -35 160 -360 105 -360
-8 0 -22 -11 -31 -26 -18 -27 -13 -38 28 -58 35 -17 69 -96 79 -183 9 -85 19
-103 45 -82 12 10 15 24 11 57 l-5 45 43 -44 43 -44 -6 -65 -7 -65 -47 -22
c-27 -13 -48 -30 -48 -38 0 -23 -53 -19 -75 5 -14 16 -21 44 -26 113 -4 51
-20 157 -37 237 -16 80 -34 179 -39 220 -6 44 -25 113 -46 165 -53 128 -48
178 13 145z m1925 -24 c-4 -20 -2 -43 5 -56 9 -17 9 -21 0 -15 -18 11 -41 72
-34 89 3 9 13 16 21 16 10 0 12 -8 8 -34z m-2237 -42 c45 -35 87 -126 107
-236 17 -93 15 -108 -14 -108 -10 0 -25 -7 -32 -16 -11 -14 -10 -18 6 -30 10
-8 25 -14 32 -14 28 0 67 -105 92 -253 17 -96 31 -137 46 -137 20 0 20 93 1
173 -17 68 -7 74 42 24 82 -84 49 -187 -78 -247 -70 -33 -79 -23 -78 88 1 71
-5 104 -30 182 -17 52 -36 127 -42 165 -25 159 -43 234 -75 310 -47 113 -50
125 -29 125 9 0 33 -12 52 -26z m2580 8 c36 -20 27 -35 -17 -27 -45 7 -92 -10
-134 -49 -37 -36 -64 -79 -52 -83 41 -14 42 -33 3 -54 -19 -10 -20 -9 -14 16
5 21 2 32 -13 47 -17 15 -21 31 -21 78 0 32 -3 66 -7 75 -6 16 4 17 113 13 66
-2 129 -10 142 -16z m-7532 -92 c109 -5 205 -10 212 -10 6 0 11 -6 10 -12 -2
-10 24 -13 107 -11 l110 2 -60 -24 c-33 -13 -75 -24 -94 -24 -43 -1 -505 77
-534 90 -18 7 -15 8 14 4 20 -3 125 -10 235 -15z m2007 -47 c70 -48 93 -85 57
-90 -70 -9 -95 -18 -126 -45 -227 -200 -253 -799 -51 -1191 100 -195 227 -263
342 -184 92 62 146 189 186 436 10 62 20 116 23 119 3 3 24 0 46 -7 22 -6 45
-9 50 -6 6 3 10 2 10 -4 0 -5 -4 -13 -10 -16 -17 -10 -39 -105 -55 -236 -28
-233 -99 -413 -205 -520 -108 -108 -230 -103 -357 14 -154 142 -257 434 -293
827 -32 362 21 694 142 882 43 68 63 80 121 75 38 -3 65 -15 120 -54z m5182
-5 c4 -17 3 -28 -3 -28 -12 0 -22 24 -22 53 0 27 16 11 25 -25z m-6548 -10
c-2 -7 0 -22 6 -32 9 -18 6 -19 -54 -13 -35 3 -75 10 -89 15 -21 8 -13 11 55
24 44 9 82 16 83 17 2 0 2 -5 -1 -11z m206 -19 c106 -35 133 -79 49 -79 -52 0
-78 14 -84 45 -2 11 -12 21 -23 23 -47 7 -65 13 -65 22 0 16 57 11 123 -11z
m6806 -76 c-17 -36 -29 -76 -27 -88 5 -23 -22 -38 -99 -56 -47 -10 -40 1 20
36 46 27 54 37 70 85 18 53 42 90 58 90 4 0 -6 -30 -22 -67z m-9741 -25 c15
-25 14 -29 -3 -67 -10 -23 -22 -41 -27 -41 -4 0 -8 32 -8 71 0 75 9 84 38 37z
m8784 -26 c34 -31 46 -67 57 -167 7 -62 14 -82 30 -94 17 -13 20 -23 15 -49
-4 -20 -2 -43 6 -57 11 -20 11 -27 0 -40 -16 -19 -36 -19 -44 0 -3 9 -14 15
-23 13 -15 -2 -19 8 -25 59 -7 61 -31 123 -47 123 -5 0 -9 -28 -8 -61 1 -42
-2 -63 -10 -66 -8 -3 -13 5 -13 22 0 34 -17 65 -35 65 -8 0 -12 6 -9 14 3 8
-2 28 -11 45 l-16 31 29 0 c15 0 36 6 45 13 17 11 17 17 2 85 -8 40 -15 79
-15 87 0 20 40 7 72 -23z m-243 12 c31 -22 46 -61 76 -196 13 -62 30 -131 36
-154 15 -49 9 -67 -27 -90 -26 -17 -27 -17 -44 3 -10 13 -19 48 -23 90 -6 67
-19 114 -72 261 -14 41 -24 80 -21 88 7 19 46 18 75 -2z m722 -18 c22 -9 40
-11 50 -5 15 8 18 2 21 -45 l3 -54 -28 20 c-16 11 -31 18 -34 15 -8 -9 47 -76
68 -82 10 -4 19 -15 19 -25 0 -31 -42 -52 -97 -48 -45 3 -48 5 -51 33 -2 17 4
58 12 92 17 74 8 89 -49 80 -40 -6 -46 5 -12 21 31 15 59 14 98 -2z m-938 -28
c14 -18 32 -50 42 -70 9 -21 34 -51 54 -68 74 -60 71 -56 71 -122 0 -34 -3
-58 -7 -54 -4 4 -21 33 -38 64 -16 30 -36 58 -42 60 -18 5 -17 -43 2 -104 19
-63 19 -83 -2 -106 -21 -24 -33 -23 -33 2 0 22 -10 26 -27 9 -9 -9 -14 -2 -22
27 -13 48 -31 203 -31 266 0 26 -5 59 -10 73 -9 23 -13 25 -25 15 -12 -10 -15
-9 -15 7 0 46 49 46 83 1z m-579 -19 c14 -11 33 -33 40 -47 27 -52 56 -155 62
-221 8 -80 16 -96 54 -116 17 -9 30 -22 30 -30 0 -19 -2 -19 -44 1 -44 21 -61
14 -82 -33 l-17 -38 -10 33 c-8 26 -7 36 7 51 16 17 15 23 -8 93 -21 63 -56
194 -80 301 -8 34 10 36 48 6z m333 -11 c27 -25 43 -76 43 -136 0 -49 17 -62
52 -38 28 20 72 21 88 1 17 -21 24 -89 11 -114 -14 -26 -31 -27 -31 -2 0 21
-23 45 -33 34 -4 -3 -15 1 -25 10 -10 10 -22 14 -25 10 -14 -13 -7 -101 9
-118 15 -15 15 -17 -1 -35 -22 -24 -84 -38 -95 -21 -4 7 -10 54 -13 104 -3 51
-20 145 -37 210 -16 65 -30 121 -30 124 0 13 66 -9 87 -29z m1938 -17 c-6 -5
-66 -26 -134 -46 -142 -42 -191 -63 -191 -82 0 -27 95 -8 284 56 66 23 120 40
121 38 12 -14 35 -70 35 -85 0 -49 -80 -81 -210 -82 -82 -2 -132 -6 -225 -22
-16 -2 -24 8 -42 57 -30 81 -29 101 5 119 57 30 384 73 357 47z m-5985 -54 c0
-2 -12 -14 -26 -28 l-27 -24 18 28 c14 22 35 36 35 24z m-3970 -52 c19 -19 40
-35 47 -35 7 0 10 -7 6 -15 -7 -19 22 -99 42 -115 10 -9 21 -7 44 5 l31 16 0
-36 c0 -33 -2 -35 -36 -35 -34 0 -35 -1 -32 -32 2 -27 7 -33 26 -31 12 2 22
-2 22 -8 0 -7 -17 -9 -51 -4 -49 7 -52 6 -46 -14 12 -49 -61 -3 -92 57 -29 58
-61 170 -61 216 0 74 45 88 100 31z m6793 -11 c29 -29 32 -37 42 -106 7 -53
18 -66 41 -47 11 9 14 22 9 47 l-6 34 30 -18 c17 -10 50 -35 73 -55 l43 -37
-22 -24 c-17 -18 -24 -41 -29 -96 -6 -65 -9 -72 -26 -66 -12 4 -33 -4 -58 -21
-21 -15 -44 -24 -50 -20 -6 4 -15 -6 -21 -25 -6 -17 -13 -30 -15 -28 -1 2 -10
73 -19 158 -9 85 -19 166 -22 180 -13 58 -45 65 -92 21 -38 -36 -39 -59 -6
-147 26 -70 31 -91 14 -61 -15 26 -27 20 -31 -15 -3 -28 -6 -33 -27 -30 -23 4
-24 2 -17 -37 6 -37 4 -42 -17 -50 -32 -12 -167 -32 -176 -26 -5 2 -4 26 1 52
10 43 9 48 -11 61 -14 10 -21 25 -21 48 0 30 3 34 37 40 20 4 52 3 72 -2 32
-8 36 -13 33 -37 -6 -53 30 -24 72 59 36 71 34 80 -16 89 l-43 7 30 12 c88 33
115 61 115 115 0 54 69 70 113 25z m3600 13 l57 -12 -303 -455 c-327 -491
-378 -564 -407 -583 -11 -6 -20 -20 -20 -30 0 -22 -38 -37 -96 -37 -32 0 -44
4 -44 14 0 34 -45 29 -56 -6 -5 -18 -12 -20 -58 -14 -70 8 -202 43 -252 67
-42 20 -64 24 -64 12 -1 -13 -40 -59 -40 -47 0 17 79 103 111 119 15 8 47 15
71 15 l43 0 -38 33 -38 32 15 50 c21 70 65 135 122 181 90 71 131 121 169 200
20 44 38 80 39 82 2 1 80 18 175 37 334 67 367 86 431 244 46 114 63 123 183
98z m-944 -29 c50 15 68 8 90 -37 32 -63 35 -94 9 -118 -24 -22 -85 -43 -125
-43 -18 0 -23 6 -23 28 0 27 -23 131 -36 165 -6 16 -4 16 20 6 20 -9 35 -9 65
-1z m-3314 -19 c0 -8 -10 -15 -22 -17 -25 -4 -30 7 -11 26 15 15 33 10 33 -9z
m485 -4 c0 -8 -61 -37 -67 -32 -3 3 8 12 24 21 29 16 43 19 43 11z m-336 -65
c43 0 56 -16 56 -65 0 -46 -13 -65 -46 -65 -37 0 -94 99 -94 164 l0 31 26 -32
c19 -25 33 -33 58 -33z m1574 33 c33 -48 42 -88 26 -112 -9 -12 -19 -21 -23
-21 -9 0 -41 115 -41 145 0 23 17 18 38 -12z m-3973 -95 c-6 -62 -3 -79 14
-113 12 -21 21 -51 21 -66 0 -18 10 -36 30 -52 36 -31 37 -37 6 -74 -12 -15
-28 -38 -35 -50 -31 -59 -4 -142 37 -116 15 9 21 7 30 -8 14 -22 61 -26 80 -7
7 7 12 22 12 34 0 22 1 22 27 9 23 -12 31 -12 48 -1 41 27 26 76 -24 76 -29 0
-51 16 -51 37 0 7 9 13 20 13 31 0 37 30 10 50 -20 15 -21 18 -5 23 86 34 210
-36 239 -134 25 -83 -11 -149 -80 -149 -42 0 -44 -18 -4 -33 36 -14 39 -27 5
-27 -17 0 -29 9 -39 28 -26 51 -60 74 -102 70 -34 -3 -39 -6 -42 -31 -7 -60
80 -177 133 -177 24 0 55 23 55 41 0 6 10 9 23 7 14 -2 23 -11 25 -27 5 -35
-96 -131 -138 -131 -75 0 -165 81 -198 178 -22 67 -42 80 -42 28 0 -51 34
-117 112 -220 38 -50 68 -94 68 -99 0 -15 -57 31 -100 81 -86 100 -127 234
-151 497 -11 123 -8 312 7 383 11 54 15 36 9 -40z m5395 52 c0 -11 -7 -20 -15
-20 -8 0 -15 9 -15 20 0 11 7 20 15 20 8 0 15 -9 15 -20z m-80 0 c0 -15 -24
-22 -57 -18 l-28 4 25 11 c32 15 60 16 60 3z m-8362 -74 c-10 -7 -18 -23 -18
-36 0 -19 4 -21 23 -15 53 18 141 16 245 -5 122 -25 158 -39 100 -40 -21 0
-38 -4 -38 -10 0 -5 -25 -10 -54 -10 -31 0 -91 -11 -138 -26 -64 -20 -86 -24
-100 -15 -24 15 -23 15 -54 -16 l-26 -28 7 30 c4 17 10 61 14 98 4 42 13 72
22 78 22 14 36 10 17 -5z m3127 -66 c-3 -5 -13 -10 -21 -10 -8 0 -12 5 -9 10
3 6 13 10 21 10 8 0 12 -4 9 -10z m354 -115 c26 -19 67 -39 91 -44 27 -6 55
-21 73 -41 16 -17 42 -33 58 -37 25 -5 27 -8 17 -20 -10 -12 -9 -18 7 -30 19
-15 18 -15 -10 -9 -16 4 -47 20 -67 37 -42 33 -48 35 -48 14 0 -27 -21 -16
-87 48 -58 56 -104 117 -87 117 3 0 28 -16 53 -35z m2071 -235 c0 -8 -9 -21
-21 -28 -19 -12 -20 -12 -14 10 4 13 9 31 12 42 4 15 7 16 14 5 5 -8 9 -21 9
-29z"/>
<path d="M5557 4281 c-87 -18 -84 -71 4 -71 59 0 147 18 155 32 19 31 -79 55
-159 39z"/>
<path d="M11675 3900 c-11 -18 10 -32 41 -28 40 4 38 32 -3 36 -17 2 -34 -2
-38 -8z"/>
<path d="M6970 3660 c-23 -23 -23 -55 0 -55 20 0 45 54 32 67 -7 7 -17 3 -32
-12z"/>
<path d="M6130 2475 c0 -12 64 -75 76 -75 23 0 16 37 -12 59 -24 19 -64 29
-64 16z"/>
<path d="M6383 2463 c-13 -2 -23 -9 -23 -14 0 -5 -26 -6 -60 -2 -41 4 -60 2
-60 -5 0 -23 157 -49 356 -59 108 -5 129 -3 195 17 l74 22 -50 14 c-96 25
-356 42 -432 27z"/>
<path d="M7582 2158 c-32 -32 10 -68 56 -46 41 20 36 52 -8 56 -19 2 -41 -3
-48 -10z"/>
<path d="M7467 2134 c-13 -13 5 -24 39 -24 19 0 34 4 34 9 0 17 -59 29 -73 15z"/>
<path d="M9354 2345 c-8 -20 2 -44 21 -52 24 -9 39 11 26 35 -14 26 -40 36
-47 17z"/>
<path d="M1826 2328 c14 -25 48 -58 60 -58 6 0 18 7 25 16 11 14 10 19 -10 35
-27 22 -87 27 -75 7z"/>
<path d="M8716 2334 c-17 -45 5 -127 33 -122 24 5 25 52 1 97 -23 46 -25 48
-34 25z"/>
<path d="M8270 2225 c0 -20 43 -47 64 -39 24 9 20 22 -14 39 -37 19 -50 19
-50 0z"/>
<path d="M11237 1874 c-34 -19 -27 -34 17 -34 35 0 62 21 51 40 -9 14 -35 12
-68 -6z"/>
<path d="M11540 1861 c0 -4 17 -11 39 -14 50 -6 132 3 125 14 -7 12 -164 12
-164 0z"/>
<path d="M11198 1523 c-37 -10 -16 -23 37 -23 60 0 74 14 24 24 -33 6 -34 6
-61 -1z"/>
<path d="M11277 2483 c-12 -11 -7 -40 9 -53 12 -11 18 -11 29 1 13 13 13 17
-1 37 -16 23 -26 27 -37 15z"/>
<path d="M8107 2374 c-13 -13 5 -24 39 -24 19 0 34 4 34 9 0 17 -59 29 -73 15z"/>
<path d="M5666 6034 c-77 -8 -141 -16 -144 -18 -2 -3 -1 -9 3 -15 8 -14 104
-14 236 0 109 11 152 24 128 40 -18 11 -51 10 -223 -7z"/>
<path d="M3672 5733 c-36 -3 -60 -8 -57 -13 8 -13 232 -13 240 0 4 6 -13 10
-44 10 -27 0 -55 1 -63 3 -7 2 -41 1 -76 0z"/>
<path d="M7243 5733 c-97 -7 -56 -23 57 -23 67 0 110 4 110 10 0 6 -20 10 -44
10 -24 0 -50 1 -58 3 -7 2 -37 2 -65 0z"/>
<path d="M4320 5555 c0 -31 29 -85 46 -85 12 0 15 6 10 26 -13 52 -56 97 -56
59z"/>
<path d="M6457 5463 c-36 -9 -4 -23 54 -23 57 0 77 11 43 24 -17 7 -69 6 -97
-1z"/>
<path d="M5524 5426 c-8 -21 13 -67 34 -74 19 -6 14 43 -7 69 -19 23 -20 23
-27 5z"/>
<path d="M5710 5102 c0 -20 27 -62 39 -62 19 0 19 30 0 54 -24 30 -39 33 -39
8z"/>
<path d="M7303 5013 c-18 -2 -33 -8 -33 -14 0 -5 93 -9 227 -9 182 0 225 3
215 13 -9 8 -64 12 -195 13 -100 1 -197 0 -214 -3z"/>
<path d="M6625 4999 c-129 -8 -260 -25 -276 -35 -5 -3 -9 -10 -9 -16 0 -22
495 8 558 34 l27 11 -25 7 c-31 10 -108 9 -275 -1z"/>
<path d="M9150 4942 c0 -14 35 -42 53 -42 26 0 29 18 5 34 -24 17 -58 21 -58
8z"/>
<path d="M5812 4927 c-6 -7 -14 -32 -18 -55 -6 -37 -4 -42 12 -42 43 1 95 69
73 96 -14 18 -53 18 -67 1z"/>
<path d="M6982 4903 c-27 -11 3 -23 58 -23 58 0 85 12 54 24 -18 7 -93 7 -112
-1z"/>
<path d="M7471 4846 c-11 -13 -9 -16 13 -22 29 -7 56 0 56 16 0 5 -6 10 -14
10 -8 0 -21 2 -29 5 -7 3 -19 -1 -26 -9z"/>
<path d="M4354 4839 c-58 -16 -73 -69 -21 -69 44 0 166 32 178 46 24 29 -84
44 -157 23z"/>
<path d="M9006 4814 c-8 -21 11 -44 35 -44 21 0 24 12 9 41 -13 23 -36 25 -44
3z"/>
<path d="M5563 4789 c-88 -13 -137 -31 -141 -51 -4 -23 17 -23 149 1 127 23
170 38 149 51 -18 11 -72 11 -157 -1z"/>
<path d="M1040 2727 c0 -21 22 -37 51 -37 35 0 47 19 24 37 -24 17 -75 17 -75
0z"/>
<path d="M518 2653 c-21 -43 -42 -85 -48 -93 -17 -26 -30 8 -30 83 0 37 -4 67
-8 67 -5 0 -18 -24 -31 -54 -24 -58 -59 -89 -94 -84 -15 2 -23 12 -27 32 -3
16 -13 34 -23 40 -15 9 -22 6 -38 -16 -17 -22 -29 -28 -60 -28 -55 0 -109 24
-109 48 0 11 -7 25 -16 33 -25 20 -34 -5 -34 -98 l0 -83 283 0 c299 0 564 13
579 28 17 17 -23 35 -90 41 -79 8 -92 14 -92 46 0 39 -16 37 -44 -5 -41 -63
-54 -54 -70 52 l-11 68 -37 -77z"/>
<path d="M1380 2690 c-20 -25 -40 -40 -54 -40 -51 0 -61 -45 -15 -64 30 -13
31 -13 8 -19 -80 -21 124 -49 235 -33 33 5 47 13 51 27 10 31 -19 67 -57 71
-25 2 -33 9 -39 32 -21 76 -80 88 -129 26z"/>
<path d="M12703 2693 c-29 -11 -10 -23 37 -23 49 0 66 12 34 24 -18 7 -53 7
-71 -1z"/>
<path d="M963 2660 c-13 -5 -35 -35 -53 -70 l-30 -60 107 0 c120 0 243 10 243
19 0 3 -24 17 -53 31 -36 18 -53 32 -55 47 -5 35 -103 55 -159 33z"/>
<path d="M738 2629 c-25 -14 -22 -36 6 -43 46 -11 72 14 44 42 -14 14 -27 15
-50 1z"/>
<path d="M15 1860 c-3 -5 0 -13 8 -16 23 -8 82 0 82 11 0 14 -82 19 -90 5z"/>
<path d="M246 1861 c-7 -11 66 -19 122 -13 23 2 42 8 42 13 0 12 -157 12 -164
0z"/>
<path d="M12180 1860 c0 -6 87 -10 240 -10 153 0 240 4 240 10 0 6 -87 10
-240 10 -153 0 -240 -4 -240 -10z"/>
<path d="M12077 1414 c-13 -13 5 -24 39 -24 24 0 34 4 32 13 -5 13 -60 22 -71
11z"/>
<path d="M1133 433 c-59 -8 -34 -23 37 -23 40 0 70 4 70 10 0 6 -8 10 -17 10
-10 0 -27 2 -38 4 -11 2 -35 1 -52 -1z"/>
<path d="M1597 433 c-79 -2 -126 -7 -122 -13 8 -14 635 -13 635 0 0 6 -36 10
-88 10 -49 0 -136 2 -193 4 -57 1 -162 1 -232 -1z"/>
<path d="M2601 431 c-20 -13 -4 -31 29 -31 39 0 47 18 15 30 -31 12 -27 12
-44 1z"/>
<path d="M3370 401 c-42 -12 304 -23 486 -15 97 5 158 11 144 15 -33 9 -597 9
-630 0z"/>
<path d="M4245 399 c-10 -15 -1 -20 34 -21 37 -1 51 9 31 22 -20 13 -57 12
-65 -1z"/>
<path d="M4430 401 c-42 -12 1 -21 98 -21 90 0 134 12 90 23 -30 9 -156 7
-188 -2z"/>
<path d="M4846 401 c-37 -14 10 -21 142 -21 135 0 183 7 160 21 -16 11 -276
10 -302 0z"/>
<path d="M8892 323 c-25 -10 1 -23 48 -23 49 0 73 13 44 24 -18 7 -73 7 -92
-1z"/>
<path d="M9132 321 c-25 -15 15 -21 153 -21 123 0 169 9 129 24 -24 9 -267 7
-282 -3z"/>
<path d="M9605 319 c-8 -12 -6 -15 20 -23 11 -3 27 -1 35 4 13 9 13 11 0 20
-20 13 -47 13 -55 -1z"/>
<path d="M10257 323 c-13 -13 -7 -21 24 -32 34 -12 157 -15 183 -5 23 9 19 31
-6 38 -31 8 -193 8 -201 -1z"/>
<path d="M10535 316 c-23 -17 -13 -46 16 -46 27 0 91 39 83 51 -8 14 -78 11
-99 -5z"/>
<path d="M11585 323 c-27 -2 -66 -6 -85 -9 -86 -15 32 -26 395 -36 365 -10
804 -2 821 15 14 14 -7 20 -93 28 -83 7 -931 9 -1038 2z"/>
<path d="M275 300 c-238 -6 -275 -10 -275 -35 0 -21 27 -26 225 -38 215 -12
6259 -17 6271 -4 4 4 5 9 2 12 -9 9 -1522 28 -4338 55 -580 5 -1188 11 -1350
13 -162 2 -403 1 -535 -3z"/>
<path d="M11056 291 c-8 -12 18 -21 59 -21 41 0 67 9 59 21 -7 12 -111 12
-118 0z"/>
<path d="M6603 243 c-29 -11 -10 -23 37 -23 49 0 66 12 34 24 -18 7 -53 7 -71
-1z"/>
<path d="M6772 243 c-27 -11 3 -23 59 -23 57 0 77 11 43 24 -18 7 -83 7 -102
-1z"/>
</g>
</svg>
